<mxfile host="app.diagrams.net" modified="2023-10-23T17:30:30.774Z" agent="Mozilla/5.0 (Windows NT 10.0; Win64; x64) AppleWebKit/537.36 (KHTML, like Gecko) Chrome/118.0.0.0 Safari/537.36" version="22.0.6" etag="JUk_0WMdYIonaKHcCMO-" type="github">
  <diagram name="Page-1" id="g2e0eUP3eSnIVqF0rOgl">
    <mxGraphModel>
      <root>
        <mxCell id="0" />
        <mxCell id="1" parent="0" />
      </root>
    </mxGraphModel>
  </diagram>
</mxfile>
